<svg width="20" height="20" viewBox="0 0 20 20" fill="none" xmlns="http://www.w3.org/2000/svg">
<path d="M14 5.57143L15.0714 4.5" stroke="#332233" stroke-linecap="round"/>
<path d="M14 7.0001L16.1429 5.57153" stroke="#332233" stroke-linecap="round"/>
<path d="M11.298 7.8295L10.8431 8.03715L11.298 7.8295L10.1826 5.38637C9.71989 4.37291 8.28011 4.37291 7.81742 5.38637L6.70202 7.8295C6.65784 7.92628 6.5657 7.99242 6.45987 8.00332L3.76903 8.28061C2.64104 8.39685 2.19221 9.80068 3.04354 10.5497L5.02655 12.2946C5.10829 12.3665 5.14465 12.4771 5.12153 12.5835L4.56341 15.1527C4.32527 16.2489 5.49421 17.1118 6.47167 16.5614L8.85279 15.2205C8.94418 15.169 9.05582 15.169 9.1472 15.2205L11.5283 16.5614C12.5058 17.1118 13.6747 16.2489 13.4366 15.1527L12.8785 12.5835C12.8554 12.4771 12.8917 12.3665 12.9735 12.2946L14.9565 10.5497C15.8078 9.80067 15.359 8.39685 14.231 8.28061L11.5401 8.00332C11.4343 7.99242 11.3422 7.92628 11.298 7.8295Z" fill="#FFF7E2" stroke="#332233"/>
</svg>
