<svg width="67" height="30" viewBox="0 0 67 30" fill="none" xmlns="http://www.w3.org/2000/svg">
<path d="M2 3.90625H4.35547L5.58594 12.3086L5.78516 13.5508C5.87891 14.2227 5.94922 14.8359 5.99609 15.3906L6.125 16.9258C6.13281 16.9648 6.14062 17.0352 6.14844 17.1367C6.15625 17.2383 6.16797 17.3672 6.18359 17.5234L6.24219 16.9375C6.33594 15.9141 6.43359 14.9727 6.53516 14.1133C6.64453 13.2539 6.76172 12.4609 6.88672 11.7344L8.1875 3.90625H10.0625L11.2812 11.5117C11.4609 12.6367 11.6094 13.6797 11.7266 14.6406C11.8516 15.6016 11.9531 16.5195 12.0312 17.3945C12.1094 16.4727 12.1953 15.582 12.2891 14.7227C12.3906 13.8633 12.4961 13.0195 12.6055 12.1914L12.7812 10.9844L13.8242 3.90625H16.1562L12.957 22H11.0586L9.78125 14.1836C9.77344 14.1523 9.75391 14.0234 9.72266 13.7969C9.69141 13.5703 9.64453 13.2461 9.58203 12.8242L9.33594 11.0195C9.32031 10.8789 9.29297 10.668 9.25391 10.3867C9.22266 10.1055 9.1875 9.75 9.14844 9.32031L9.08984 8.57031C9.07422 8.75 9.05859 8.90625 9.04297 9.03906C9.02734 9.17188 9.01562 9.28125 9.00781 9.36719C8.96875 9.88281 8.93359 10.2852 8.90234 10.5742C8.87891 10.8555 8.86328 11.0273 8.85547 11.0898L8.60938 12.8242C8.55469 13.2227 8.51172 13.5352 8.48047 13.7617C8.44922 13.9883 8.42578 14.1289 8.41016 14.1836L7.08594 22H5.12891L2 3.90625Z" fill="black"/>
<path d="M23.9553 16.0352C23.9553 20.1367 22.6858 22.1875 20.1467 22.1875C17.6077 22.1875 16.3381 20.1055 16.3381 15.9414C16.3381 11.7617 17.6038 9.67188 20.135 9.67188C20.7913 9.67188 21.3577 9.79688 21.8342 10.0469C22.3186 10.2969 22.717 10.6836 23.0295 11.207C23.342 11.7305 23.5725 12.3906 23.7209 13.1875C23.8772 13.9844 23.9553 14.9336 23.9553 16.0352ZM21.635 15.9766C21.635 14.3828 21.5295 13.2734 21.3186 12.6484C21.1077 12.0156 20.7327 11.6992 20.1936 11.6992C19.6623 11.6992 19.2834 12.0117 19.0569 12.6367C18.8459 13.2617 18.7405 14.3516 18.7405 15.9062C18.7405 17.4609 18.8459 18.5469 19.0569 19.1641C19.2834 19.7891 19.6623 20.1016 20.1936 20.1016C20.7248 20.1016 21.0959 19.793 21.3069 19.1758C21.5256 18.5977 21.635 17.5312 21.635 15.9766Z" fill="black"/>
<path d="M25.813 9.87109H28.0513V10.5C28.841 9.67188 29.7217 9.65026 30.6763 9.58984V11.9336C30.52 11.9102 30.3872 11.8984 30.2778 11.8984C29.4731 11.8984 28.8989 12.1055 28.5552 12.5195C28.2192 12.9258 28.0513 13.6367 28.0513 14.6523V22H25.813V9.87109Z" fill="black"/>
<path d="M39.0612 2.08984V22H36.823V20.4414C36.5027 21.1055 36.1823 21.5625 35.862 21.8125C35.5417 22.0625 35.1159 22.1875 34.5847 22.1875C33.5847 22.1875 32.8503 21.6758 32.3816 20.6523C31.9128 19.6211 31.6784 18.0039 31.6784 15.8008C31.6784 14.7383 31.737 13.8203 31.8542 13.0469C31.9714 12.2734 32.1472 11.6367 32.3816 11.1367C32.6238 10.6367 32.9323 10.2695 33.3073 10.0352C33.6823 9.79297 34.1277 9.67188 34.6433 9.67188C35.1355 9.67188 35.5417 9.78906 35.862 10.0234C36.0183 10.1328 36.1784 10.2891 36.3425 10.4922C36.5066 10.6953 36.6667 10.9453 36.823 11.2422V2.08984H39.0612ZM33.9987 15.8828C33.9987 17.4766 34.1042 18.5898 34.3152 19.2227C34.5339 19.8555 34.9167 20.1719 35.4636 20.1719C35.9636 20.1719 36.3269 19.8438 36.5534 19.1875C36.78 18.4844 36.8933 17.4023 36.8933 15.9414C36.8933 14.4727 36.78 13.3867 36.5534 12.6836C36.3269 12.0273 35.9636 11.6992 35.4636 11.6992C34.9323 11.6992 34.5534 12.0117 34.3269 12.6367C34.1081 13.2148 33.9987 14.2969 33.9987 15.8828Z" fill="black"/>
<path d="M46.0517 10.1172V12.2148C45.5048 11.8086 44.9306 11.6055 44.3291 11.6055C44.1259 11.6055 43.9384 11.6406 43.7666 11.7109C43.5947 11.7812 43.4423 11.8789 43.3095 12.0039C43.1845 12.1211 43.083 12.2656 43.0048 12.4375C42.9345 12.6016 42.8994 12.7773 42.8994 12.9648C42.8994 13.543 43.4228 14.2305 44.4697 15.0273C44.8916 15.3555 45.2431 15.6602 45.5244 15.9414C45.8056 16.2227 46.0205 16.4883 46.1689 16.7383C46.4736 17.2305 46.6259 17.8516 46.6259 18.6016C46.6259 19.6875 46.3095 20.5586 45.6767 21.2148C45.0517 21.8633 44.2119 22.1875 43.1572 22.1875C42.5088 22.1875 41.8525 21.9961 41.1884 21.6133V19.4453C41.8369 19.9297 42.4502 20.1719 43.0283 20.1719C44.0517 20.1719 44.5634 19.668 44.5634 18.6602C44.5634 18.2852 44.4697 17.9609 44.2822 17.6875C44.1963 17.5547 44.0595 17.4023 43.872 17.2305C43.6845 17.0508 43.4541 16.8516 43.1806 16.6328C42.2353 15.8984 41.5947 15.2812 41.2588 14.7812C40.9306 14.2656 40.7666 13.6445 40.7666 12.918C40.7666 11.9414 41.0673 11.1406 41.6689 10.5156C42.2783 9.89844 43.0713 9.58984 44.0478 9.58984C44.7353 9.58984 45.4033 9.76562 46.0517 10.1172Z" fill="black"/>
<path d="M52.8781 9.87109H55.1281V22.3867C55.1281 23.8867 54.9797 24.9258 54.6828 25.5039C54.1359 26.5664 53.0383 27.0977 51.3898 27.0977C50.3039 27.0977 49.4523 26.7891 48.8352 26.1719C48.2102 25.5469 47.8977 24.707 47.8977 23.6523L47.9094 23.2773H50.0773C50.0773 24.5664 50.5578 25.2109 51.5187 25.2109C52.0422 25.2109 52.3977 25.0469 52.5852 24.7188C52.7805 24.4062 52.8781 23.7852 52.8781 22.8555V20.5234C52.4016 21.6328 51.6711 22.1875 50.6867 22.1875C49.6711 22.1875 48.9211 21.6953 48.4367 20.7109C47.9602 19.7266 47.7219 18.1875 47.7219 16.0938C47.7219 13.875 47.9523 12.2383 48.4133 11.1836C48.8664 10.1758 49.6203 9.67188 50.675 9.67188C51.7194 9.67188 52.3984 10.1386 52.8781 11V9.87109ZM52.9133 16.0469C52.9133 13.1484 52.4133 11.6992 51.4133 11.6992C50.9367 11.6992 50.5891 12.0273 50.3703 12.6836C50.1516 13.332 50.0422 14.375 50.0422 15.8125C50.0422 17.3359 50.1555 18.457 50.382 19.1758C50.6164 19.8398 51.007 20.1719 51.5539 20.1719C52.0695 20.1719 52.425 19.875 52.6203 19.2812C52.8156 18.7266 52.9133 17.6484 52.9133 16.0469Z" fill="black"/>
<path d="M64.5913 16.0352C64.5913 20.1367 63.3217 22.1875 60.7827 22.1875C58.2436 22.1875 56.9741 20.1055 56.9741 15.9414C56.9741 11.7617 58.2397 9.67188 60.7709 9.67188C61.4272 9.67188 61.9936 9.79688 62.4702 10.0469C62.9545 10.2969 63.353 10.6836 63.6655 11.207C63.978 11.7305 64.2084 12.3906 64.3569 13.1875C64.5131 13.9844 64.5913 14.9336 64.5913 16.0352ZM62.2709 15.9766C62.2709 14.3828 62.1655 13.2734 61.9545 12.6484C61.7436 12.0156 61.3686 11.6992 60.8295 11.6992C60.2983 11.6992 59.9194 12.0117 59.6928 12.6367C59.4819 13.2617 59.3764 14.3516 59.3764 15.9062C59.3764 17.4609 59.4819 18.5469 59.6928 19.1641C59.9194 19.7891 60.2983 20.1016 60.8295 20.1016C61.3608 20.1016 61.7319 19.793 61.9428 19.1758C62.1616 18.5977 62.2709 17.5312 62.2709 15.9766Z" fill="black"/>
</svg>
